<?xml version="1.0" standalone="no"?>
<!DOCTYPE svg PUBLIC "-//W3C//DTD SVG 20010904//EN"
 "http://www.w3.org/TR/2001/REC-SVG-20010904/DTD/svg10.dtd">
<svg version="1.0" xmlns="http://www.w3.org/2000/svg"
 width="493.000000pt" height="492.000000pt" viewBox="0 0 493.000000 492.000000"
 preserveAspectRatio="xMidYMid meet">

<g transform="translate(0.000000,492.000000) scale(0.100000,-0.100000)"
fill="#000000" stroke="none">
<path d="M2335 4778 c-1073 -55 -1967 -857 -2156 -1933 -27 -153 -36 -456 -20
-616 57 -551 300 -1054 692 -1434 190 -183 374 -314 604 -426 408 -198 852
-273 1300 -218 888 108 1641 725 1923 1574 189 569 150 1195 -108 1733 -118
246 -245 427 -434 620 -203 208 -389 343 -641 467 -366 180 -738 255 -1160
233z m565 -1272 c125 -15 358 -54 370 -61 3 -2 1 -40 -4 -84 -5 -44 -7 -83 -4
-86 3 -3 63 -21 133 -39 70 -19 131 -40 136 -47 16 -26 22 -207 10 -337 -44
-502 -259 -950 -651 -1356 -92 -95 -294 -271 -379 -330 l-41 -29 -84 64 c-510
389 -836 877 -953 1428 -25 114 -27 147 -28 343 0 119 3 219 6 223 4 3 68 22
144 42 l137 36 -6 31 c-3 17 -8 56 -11 87 l-7 56 109 21 c99 20 298 46 418 56
113 9 586 -3 705 -18z"/>
<path d="M2195 3484 c-16 -2 -79 -9 -140 -15 -110 -11 -237 -32 -308 -50 l-39
-10 7 -84 7 -84 -38 -10 c-22 -5 -83 -21 -137 -35 -54 -13 -101 -26 -103 -29
-2 -2 -7 -60 -10 -128 -15 -291 53 -599 197 -899 116 -240 264 -445 466 -647
116 -114 354 -313 376 -313 18 0 223 168 329 269 348 329 583 736 674 1163 20
97 27 162 31 308 3 102 1 201 -4 220 l-9 34 -134 34 c-74 18 -136 35 -138 37
-2 2 1 39 6 82 6 43 9 79 8 80 -7 7 -169 35 -306 54 -108 15 -216 21 -425 24
-154 2 -293 1 -310 -1z m676 -134 c85 -10 183 -25 219 -33 l65 -13 -3 -77 -3
-76 38 -10 c21 -5 77 -20 125 -32 l86 -21 8 -76 c14 -158 -10 -379 -61 -557
-92 -319 -264 -604 -525 -866 -117 -119 -335 -302 -352 -297 -27 10 -239 191
-332 283 -356 356 -554 755 -596 1205 -14 144 -4 297 19 309 9 4 67 21 129 36
l112 27 -7 52 c-14 100 -14 99 47 113 275 63 696 77 1031 33z"/>
<path d="M2432 2856 c-106 -62 -197 -117 -202 -122 -6 -6 65 -53 194 -127 111
-64 206 -117 209 -117 4 0 7 25 7 55 l0 55 170 0 170 0 0 130 0 130 -170 0
-170 0 0 55 c0 30 -3 55 -7 54 -5 0 -95 -51 -201 -113z"/>
<path d="M2340 2406 l0 -56 -165 0 -165 0 0 -130 0 -130 165 0 165 0 0 -56 c0
-31 4 -54 9 -52 22 7 411 233 411 239 0 5 -373 223 -402 234 -16 6 -18 0 -18
-49z"/>
</g>
</svg>
